if (_typeface_js && _typeface_js.loadFace) _typeface_js.loadFace({"glyphs":{"0":{"ha":718,"x_min":7,"x_max":734,"o":"m 307 845 q 237 755 250 839 q 260 231 203 532 q 339 131 276 143 q 463 203 438 109 q 492 734 509 536 q 438 842 481 823 q 307 845 395 863 m 658 137 q 450 -98 614 -55 q 284 -113 391 -123 q 75 122 109 -90 q 20 858 7 586 q 214 1082 26 1029 q 578 1055 341 1111 q 695 922 679 1034 q 658 137 734 573 z "},"1":{"ha":537,"x_min":27,"x_max":503,"o":"m 269 -85 l 269 751 l 181 644 l 27 804 l 279 1113 l 503 1113 l 503 -85 l 269 -85 z "},"2":{"ha":720,"x_min":12,"x_max":780,"o":"m 410 270 q 300 171 251 169 l 713 192 l 672 -89 l 14 -87 l 14 110 q 367 524 20 338 q 473 758 484 574 q 431 813 469 794 q 329 829 410 829 q 236 788 255 830 q 272 543 192 696 l 98 490 q 16 784 20 650 q 85 1051 12 918 q 296 1120 120 1111 q 503 1094 427 1120 q 658 938 620 1053 q 410 270 780 468 z "},"3":{"ha":729,"x_min":20,"x_max":694,"o":"m 219 458 l 218 458 l 122 633 l 347 844 l 43 817 l 20 1112 l 680 1112 l 680 854 l 525 722 q 673 622 644 700 q 694 441 694 555 q 570 -37 694 159 q 473 -94 540 -76 q 315 -109 430 -103 q 133 -68 178 -111 q 57 137 101 -39 q 31 354 28 259 l 212 372 q 224 258 214 293 q 266 159 253 170 q 338 143 283 142 q 401 149 384 145 q 439 172 427 156 q 489 363 489 250 q 480 435 489 408 q 379 478 466 471 q 219 458 274 484 z "},"4":{"ha":751,"x_min":27,"x_max":721,"o":"m 475 -125 l 475 204 l 53 204 l 27 458 l 343 1119 l 603 1020 l 309 471 l 475 471 l 475 735 l 711 702 l 721 -87 l 475 -125 z "},"5":{"ha":706,"x_min":-7,"x_max":701,"o":"m 362 475 q 242 404 252 481 l 33 492 l 16 1112 l 667 1112 l 657 824 l 250 844 l 250 760 q 360 768 294 769 q 507 751 443 768 q 599 695 572 734 q 677 202 701 492 q 642 15 668 84 q 388 -96 593 -96 q 52 -26 157 -83 q 7 146 -7 2 q 47 360 14 231 l 245 314 q 238 193 215 206 q 370 173 280 168 q 456 212 441 178 q 468 276 465 236 q 441 449 476 378 q 362 475 428 471 z "},"6":{"ha":726,"x_min":-1,"x_max":713,"o":"m 248 657 q 483 677 344 683 q 703 484 680 652 q 697 208 713 380 q 534 -100 663 -83 q 281 -95 394 -117 q 71 137 113 -57 q 35 862 -1 581 q 224 1095 61 1037 q 509 1125 378 1150 q 688 913 683 1087 q 686 736 690 833 l 480 712 q 471 795 477 754 q 401 866 460 862 q 310 850 355 873 q 253 738 264 829 q 248 657 249 700 m 490 336 q 434 412 490 394 q 284 380 337 435 q 279 214 256 342 q 408 134 302 119 q 490 336 484 145 z "},"7":{"ha":705,"x_min":16,"x_max":681,"o":"m 16 -85 l 390 843 l 28 821 l 17 1110 l 666 1110 l 681 861 l 214 -125 l 16 -85 z "},"8":{"ha":724,"x_min":7,"x_max":734,"o":"m 407 651 q 435 667 425 655 q 469 804 469 723 q 463 856 469 838 q 392 887 452 882 q 276 871 314 891 q 284 729 252 859 q 313 657 304 666 q 363 646 326 646 q 407 651 395 648 m 264 406 q 283 188 237 313 q 348 146 296 151 q 449 176 429 138 q 472 397 487 315 q 429 441 464 434 q 321 442 393 451 q 264 406 275 441 m 92 587 q 69 656 81 617 q 14 943 14 840 q 75 1076 11 1054 q 434 1131 190 1120 q 691 1044 649 1131 q 712 899 712 990 q 639 592 712 725 q 695 526 684 572 q 658 41 734 311 q 450 -105 614 -78 q 284 -114 391 -120 q 75 32 109 -100 q 20 487 7 319 q 92 587 24 551 z "},"9":{"ha":718,"x_min":17,"x_max":730,"o":"m 482 368 q 247 348 386 342 q 27 541 50 373 q 33 817 17 646 q 195 1126 66 1108 q 448 1120 336 1143 q 659 888 617 1082 q 694 163 730 445 q 505 -70 669 -12 q 220 -100 351 -125 q 42 112 47 -62 q 43 289 40 193 l 250 313 q 258 231 253 271 q 328 159 269 163 q 420 176 375 151 q 477 288 465 195 q 482 368 481 326 m 240 689 q 296 613 240 631 q 446 646 393 590 q 450 812 474 684 q 322 890 428 906 q 240 689 246 880 z "}," ":{"ha":345,"x_min":0,"x_max":0,"o":""},"!":{"ha":298,"x_min":15,"x_max":266,"o":"m 54 231 l 20 1099 l 266 1126 l 220 233 l 54 231 m 128 -98 q 62 -84 79 -98 q 35 -14 52 -74 q 16 109 16 65 q 37 165 15 155 q 165 188 79 184 q 256 151 241 188 q 263 90 263 128 q 219 -73 263 -7 q 184 -93 208 -87 q 128 -98 169 -96 z "},"\"":{"ha":480,"x_min":27,"x_max":446,"o":"m 262 842 l 239 1193 l 446 1193 l 385 842 l 262 842 m 83 842 l 27 1193 l 234 1193 l 212 842 l 83 842 z "},"#":{"ha":1063,"x_min":17,"x_max":1027,"o":"m 195 454 l 233 557 l 164 557 l 132 804 l 323 808 l 433 1109 l 671 967 l 604 812 l 668 814 l 775 1109 l 1013 967 l 948 819 l 1027 821 l 1006 551 l 832 552 l 795 465 l 912 468 l 892 198 l 679 199 l 545 -109 l 363 -26 l 446 202 l 338 203 l 203 -109 l 21 -26 l 104 204 l 50 205 l 17 452 l 195 454 m 492 555 l 450 459 l 540 460 l 573 554 l 492 555 z "},"$":{"ha":719,"x_min":-134,"x_max":663,"o":"m 258 1100 l 241 1250 l 466 1266 l 449 1101 q 588 1047 561 1087 q 657 816 661 932 q 610 615 653 701 l 421 640 q 437 819 481 740 q 345 855 418 856 q 242 841 263 855 q 200 793 204 825 q 307 623 180 669 q 660 265 654 463 q 601 -13 663 28 q 452 -84 540 -58 l 434 -261 l 264 -248 l 249 -112 q 40 46 76 -98 q 37 335 19 146 l 213 343 q 220 243 215 283 q 317 137 233 150 q 448 230 428 138 q 284 388 469 300 q 66 1001 -134 545 q 171 1084 92 1061 q 258 1100 208 1095 z "},"%":{"ha":899,"x_min":26,"x_max":867,"o":"m 26 -81 l 627 1182 l 867 1023 l 208 -165 l 26 -81 m 205 703 q 106 724 131 703 q 65 830 90 739 q 35 1015 35 949 q 68 1102 34 1087 q 261 1137 130 1131 q 399 1081 376 1137 q 410 987 410 1046 q 343 740 410 842 q 291 711 326 721 q 205 703 267 707 m 220 852 q 243 854 237 852 q 258 862 253 857 q 276 930 276 890 q 273 956 276 946 q 235 971 267 971 q 182 961 199 970 q 173 938 173 957 q 181 887 173 920 q 193 857 188 861 q 220 852 199 851 m 656 -113 q 557 -92 581 -114 q 515 14 540 -77 q 486 199 486 133 q 519 286 484 271 q 711 320 581 314 q 849 264 827 320 q 861 171 861 230 q 793 -77 861 26 q 741 -105 777 -96 q 656 -113 718 -110 m 670 35 q 694 38 687 37 q 708 45 703 40 q 726 114 726 73 q 724 139 726 130 q 686 155 718 155 q 633 144 650 153 q 623 121 623 141 q 631 71 623 103 q 643 41 638 45 q 670 35 650 35 z "},"&":{"ha":729,"x_min":20,"x_max":694,"o":"m 257 1112 l 241 1250 l 466 1266 l 450 1112 l 694 1112 l 671 817 l 368 844 l 593 633 l 496 458 q 335 478 442 484 q 234 435 248 471 q 226 363 226 408 q 275 172 226 250 q 314 149 288 156 q 376 143 331 145 q 449 159 431 142 q 490 258 461 170 q 502 372 500 293 l 684 354 q 658 137 687 259 q 581 -68 614 -39 q 450 -109 546 -102 l 434 -261 l 264 -248 l 247 -95 q 241 -94 243 -94 q 144 -37 175 -76 q 20 441 20 159 q 42 622 20 555 q 190 722 71 700 l 35 854 l 35 1112 l 257 1112 z "},"'":{"ha":341,"x_min":21,"x_max":301,"o":"m 21 813 l 102 1211 l 301 1148 l 143 768 l 21 813 z "},"(":{"ha":456,"x_min":-1,"x_max":435,"o":"m 386 1042 q 299 1028 332 1038 q 229 899 241 1020 q 252 142 195 576 q 331 -1 268 16 q 393 -7 348 -7 l 435 -250 q 276 -260 325 -266 q 66 47 101 -230 q 12 1008 -1 652 q 205 1299 18 1231 q 415 1315 268 1318 l 386 1042 z "},")":{"ha":481,"x_min":18,"x_max":474,"o":"m 56 -14 q 203 104 182 -9 q 232 868 250 583 q 178 1023 222 998 q 47 1033 151 1043 l 18 1297 q 318 1264 197 1302 q 435 1091 419 1237 q 398 66 474 635 q 191 -240 355 -184 q 21 -269 130 -265 l 56 -14 z "},"*":{"ha":678,"x_min":27,"x_max":644,"o":"m 227 1266 q 431 1266 300 1263 l 431 1105 l 541 1194 q 644 994 604 1064 l 483 903 l 581 755 q 422 609 477 665 l 340 769 l 249 609 q 90 755 194 665 l 197 884 l 27 994 q 131 1194 67 1064 l 233 1112 l 227 1266 z "},"+":{"ha":626,"x_min":27,"x_max":574,"o":"m 574 635 l 562 366 l 47 373 l 27 619 l 574 635 m 419 189 l 182 203 l 189 789 l 405 812 l 419 189 z "},",":{"ha":319,"x_min":13,"x_max":293,"o":"m 13 -192 l 94 206 l 293 143 l 135 -237 l 13 -192 z "},"-":{"ha":505,"x_min":27,"x_max":471,"o":"m 471 635 l 461 366 l 43 373 l 27 619 l 471 635 z "},".":{"ha":286,"x_min":15,"x_max":263,"o":"m 128 -98 q 62 -84 79 -98 q 35 -14 52 -74 q 16 109 16 65 q 37 165 15 155 q 165 188 79 184 q 256 151 241 188 q 263 90 263 128 q 219 -73 263 -7 q 184 -93 208 -87 q 128 -98 169 -96 z "},"/":{"ha":963,"x_min":27,"x_max":945,"o":"m 27 -139 l 705 1290 l 945 1131 l 210 -223 l 27 -139 z "},":":{"ha":296,"x_min":15,"x_max":263,"o":"m 128 -98 q 62 -84 79 -98 q 35 -14 52 -74 q 16 109 16 65 q 37 165 15 155 q 165 188 79 184 q 256 151 241 188 q 263 90 263 128 q 219 -73 263 -7 q 184 -93 208 -87 q 128 -98 169 -96 m 128 277 q 62 291 79 277 q 35 361 52 301 q 16 484 16 440 q 37 540 15 530 q 165 563 79 559 q 256 526 241 563 q 263 465 263 503 q 219 302 263 368 q 184 282 208 288 q 128 277 169 279 z "},";":{"ha":341,"x_min":13,"x_max":295,"o":"m 13 -192 l 94 206 l 293 143 l 135 -237 l 13 -192 m 159 277 q 94 291 111 277 q 67 361 83 301 q 47 484 47 440 q 69 540 47 530 q 196 563 110 559 q 288 526 273 563 q 295 465 295 503 q 250 302 295 368 q 216 282 239 288 q 159 277 201 279 z "},"<":{"ha":770,"x_min":27,"x_max":742,"o":"m 741 819 l 239 508 l 742 226 l 623 -94 l 27 392 l 27 638 l 602 1114 l 741 819 z "},"=":{"ha":505,"x_min":15,"x_max":473,"o":"m 473 515 l 451 245 l 33 252 l 17 498 l 473 515 m 459 819 l 449 550 l 31 557 l 15 804 l 459 819 z "},">":{"ha":770,"x_min":27,"x_max":742,"o":"m 167 1114 l 742 638 l 742 392 l 146 -94 l 27 226 l 530 508 l 28 819 l 167 1114 z "},"?":{"ha":676,"x_min":19,"x_max":663,"o":"m 329 188 q 394 174 378 188 q 421 104 406 164 q 441 -18 441 25 q 419 -75 441 -66 q 292 -98 378 -94 q 201 -62 216 -98 q 193 0 193 -39 q 238 163 193 97 q 273 182 249 176 q 329 188 288 186 m 196 235 q 284 605 146 509 q 448 763 469 692 q 317 856 428 854 q 220 749 233 843 q 213 650 215 709 l 37 658 q 40 946 19 846 q 288 1106 80 1106 q 601 1006 490 1088 q 660 728 663 964 q 458 429 654 530 q 401 264 368 363 l 196 235 z "},"@":{"ha":793,"x_min":-68,"x_max":779,"o":"m 302 452 q 354 381 307 395 q 437 441 417 375 q 380 553 453 557 q 302 452 304 537 m 139 821 q 686 819 396 1061 q 764 550 779 733 q 633 265 752 357 q 451 292 514 204 q 331 230 403 238 q 231 288 279 225 q 180 457 178 376 q 233 607 184 545 q 421 663 313 705 q 427 692 423 675 q 589 680 516 688 q 590 454 593 528 q 623 420 593 426 q 642 481 633 448 q 630 652 663 581 q 252 698 489 863 q 255 195 14 399 q 454 244 363 131 q 589 122 538 161 q 343 5 500 -2 q 21 297 111 33 q 139 821 -68 561 z "},"A":{"ha":897,"x_min":-1,"x_max":884,"o":"m -1 -74 l 357 1109 l 499 1091 l 884 -45 l 663 -90 l 608 100 l 287 100 l 238 -129 l -1 -74 m 427 675 l 343 332 l 538 324 l 427 675 z "},"B":{"ha":725,"x_min":19,"x_max":706,"o":"m 260 856 l 264 549 l 399 550 q 482 715 490 553 q 433 845 476 824 q 260 856 385 876 m 596 422 q 666 302 653 373 q 659 -52 706 137 q 271 -123 628 -148 l 41 -100 l 19 1116 l 358 1116 q 688 976 677 1104 q 655 528 699 667 q 596 422 640 458 m 265 336 l 269 95 q 433 106 393 93 q 476 193 481 118 q 403 335 476 326 l 265 336 z "},"C":{"ha":718,"x_min":0,"x_max":701,"o":"m 701 106 q 441 -103 566 -83 q 275 -95 334 -117 q 70 131 111 -59 q 35 837 0 563 q 219 1063 60 1006 q 496 1093 369 1117 q 670 886 666 1056 q 669 713 672 808 l 468 690 q 460 771 465 731 q 391 840 449 837 q 302 825 346 848 q 247 715 258 805 q 272 205 227 517 q 390 137 292 113 q 559 276 453 153 l 701 106 z "},"D":{"ha":718,"x_min":38,"x_max":671,"o":"m 51 -91 l 38 1102 l 336 1100 q 671 798 670 1095 q 604 123 650 260 q 51 -91 551 -47 m 431 810 q 279 833 382 842 l 278 180 l 385 216 q 465 689 446 225 q 431 810 476 787 z "},"E":{"ha":693,"x_min":16,"x_max":650,"o":"m 49 -62 l 16 1062 l 650 1036 l 635 824 l 252 805 l 252 674 l 532 656 l 532 441 l 252 432 l 252 195 l 633 195 l 627 -22 l 49 -62 z "},"F":{"ha":709,"x_min":12,"x_max":675,"o":"m 43 -95 l 12 1113 l 675 1113 l 649 869 l 262 845 l 262 649 l 552 649 l 534 421 l 262 381 l 262 -85 l 43 -95 z "},"G":{"ha":757,"x_min":4,"x_max":722,"o":"m 354 591 l 711 591 l 695 123 q 477 -121 680 -104 q 288 -105 347 -131 q 80 138 123 -60 q 43 949 4 589 q 161 1087 60 1065 q 525 1116 397 1146 q 719 884 712 1061 q 720 707 722 804 l 511 688 q 502 778 508 734 q 431 871 488 865 q 300 867 344 889 q 247 755 257 848 q 275 206 229 551 q 422 132 300 109 q 498 234 497 143 l 504 373 l 347 363 l 354 591 z "},"H":{"ha":742,"x_min":27,"x_max":688,"o":"m 453 -118 l 453 321 l 262 301 l 262 -62 l 59 -39 l 27 1113 l 262 1136 l 262 562 l 453 551 l 453 1086 l 688 1071 l 658 -102 l 453 -118 z "},"I":{"ha":279,"x_min":7,"x_max":245,"o":"m 52 -124 l 11 771 l 245 798 l 245 -70 l 52 -124 m 31 876 l 7 1180 l 242 1171 l 224 867 l 31 876 z "},"J":{"ha":749,"x_min":19,"x_max":724,"o":"m 652 1113 q 682 47 724 385 q 553 -87 663 -66 q 226 -113 357 -140 q 27 111 35 -61 q 42 504 19 273 l 242 504 q 251 214 230 345 q 313 123 266 129 q 399 127 358 105 q 458 235 447 145 q 430 1072 477 427 l 652 1113 z "},"K":{"ha":763,"x_min":25,"x_max":724,"o":"m 509 -85 l 280 276 l 279 275 l 279 -117 l 71 -95 l 25 1102 l 279 1113 l 279 681 l 524 1055 l 713 994 l 437 495 l 724 -32 l 509 -85 z "},"L":{"ha":669,"x_min":23,"x_max":634,"o":"m 50 -94 l 23 1098 l 290 1126 l 262 182 l 634 182 l 633 -56 l 50 -94 z "},"M":{"ha":920,"x_min":23,"x_max":886,"o":"m 264 451 l 265 -113 l 64 -88 l 23 1044 l 217 1107 l 452 492 l 694 1158 l 886 1133 l 836 -42 l 648 -70 l 648 514 l 508 103 l 397 100 l 264 451 z "},"N":{"ha":813,"x_min":12,"x_max":779,"o":"m 233 1137 l 526 466 l 511 1069 l 779 1084 l 739 -123 l 551 -123 l 262 543 l 252 -50 l 57 -63 l 12 1095 l 233 1137 z "},"O":{"ha":777,"x_min":11,"x_max":761,"o":"m 352 -114 q 155 -54 203 -117 q 73 250 121 -12 q 14 783 14 593 q 79 1030 11 988 q 463 1131 203 1113 q 738 970 694 1131 q 761 702 761 871 q 627 -8 761 283 q 523 -91 594 -65 q 352 -114 476 -104 m 385 138 q 452 151 433 144 q 494 199 480 166 q 547 616 547 370 q 538 773 547 714 q 429 867 522 854 q 249 818 307 878 q 262 390 210 780 q 306 173 292 198 q 385 138 325 137 z "},"P":{"ha":718,"x_min":27,"x_max":689,"o":"m 519 389 l 282 304 l 282 -127 l 67 -91 l 27 1113 l 328 1113 q 682 968 672 1097 q 641 520 689 659 q 519 389 614 415 m 444 840 q 283 872 394 868 l 283 509 l 397 546 q 479 730 467 564 q 444 840 491 819 z "},"Q":{"ha":786,"x_min":11,"x_max":761,"o":"m 474 169 q 494 199 486 181 q 547 616 547 370 q 538 773 547 714 q 429 867 522 854 q 249 818 307 878 q 262 390 210 780 q 306 173 292 198 q 360 139 321 144 l 353 193 l 463 201 l 474 169 m 395 -110 q 352 -114 375 -112 q 155 -54 203 -117 q 73 250 121 -12 q 14 783 14 593 q 79 1030 11 988 q 463 1131 203 1113 q 738 970 694 1131 q 761 702 761 871 q 627 -8 761 283 q 557 -76 603 -50 l 602 -206 l 414 -245 l 395 -110 z "},"R":{"ha":740,"x_min":27,"x_max":718,"o":"m 284 887 l 284 559 q 479 741 470 574 q 444 859 491 840 q 284 887 394 888 m 283 316 l 283 -112 l 67 -94 l 27 1113 q 681 956 671 1172 q 640 512 688 647 q 518 388 614 408 l 504 385 l 718 4 l 579 -134 l 283 316 z "},"S":{"ha":681,"x_min":-134,"x_max":663,"o":"m 284 388 q 66 1001 -134 545 q 171 1084 92 1061 q 377 1106 247 1106 q 588 1047 553 1099 q 657 816 661 932 q 610 615 653 701 l 421 640 q 437 819 481 740 q 345 855 418 856 q 242 841 263 855 q 200 793 204 825 q 307 623 180 669 q 660 265 654 463 q 601 -13 663 28 q 288 -114 490 -96 q 40 46 80 -114 q 37 335 19 146 l 213 343 q 220 243 215 283 q 317 137 233 150 q 448 230 428 138 q 284 388 469 300 z "},"T":{"ha":776,"x_min":23,"x_max":742,"o":"m 277 -90 l 264 837 l 27 837 l 23 1071 l 742 1112 l 734 837 l 515 837 l 499 -62 l 277 -90 z "},"U":{"ha":734,"x_min":-9,"x_max":718,"o":"m 664 1033 q 699 116 718 513 q 492 -107 692 -56 q 156 -79 373 -132 q 26 103 48 -54 q 47 1086 -9 392 l 282 1069 q 248 243 229 441 q 305 134 259 153 q 391 128 351 116 q 467 219 454 142 q 433 1002 503 441 l 664 1033 z "},"V":{"ha":917,"x_min":9,"x_max":902,"o":"m 277 1113 l 438 261 l 613 1156 l 902 1105 l 536 -75 l 315 -103 l 9 1059 l 277 1113 z "},"W":{"ha":1064,"x_min":12,"x_max":1044,"o":"m 270 1105 l 337 395 l 526 1076 l 714 368 l 783 1147 l 1044 1105 l 863 -50 l 620 -77 l 523 283 l 390 -116 l 184 -96 l 12 1069 l 270 1105 z "},"X":{"ha":841,"x_min":24,"x_max":805,"o":"m 558 514 l 805 -50 l 536 -104 l 412 181 l 272 -136 l 24 -43 l 267 514 l 26 1063 l 296 1113 l 412 846 l 538 1138 l 803 1072 l 558 514 z "},"Y":{"ha":851,"x_min":11,"x_max":837,"o":"m 277 1113 l 414 739 l 564 1145 l 837 1113 l 534 459 l 534 -54 l 278 -115 l 300 458 l 11 1078 l 277 1113 z "},"Z":{"ha":839,"x_min":19,"x_max":810,"o":"m 336 188 l 810 218 l 801 -79 l 39 -79 l 19 176 l 530 852 l 33 799 l 22 1114 l 805 1114 l 804 863 l 336 188 z "},"[":{"ha":502,"x_min":19,"x_max":474,"o":"m 468 1074 l 288 1078 l 261 -68 l 468 -47 l 474 -326 l 27 -317 l 19 1311 l 468 1345 l 468 1074 z "},"\\":{"ha":962,"x_min":27,"x_max":945,"o":"m 762 -223 l 27 1131 l 267 1290 l 945 -139 l 762 -223 z "},"]":{"ha":502,"x_min":19,"x_max":474,"o":"m 25 1345 l 474 1311 l 466 -317 l 19 -326 l 25 -47 l 232 -68 l 205 1078 l 25 1074 l 25 1345 z "},"^":{"ha":561,"x_min":27,"x_max":527,"o":"m 277 949 l 92 802 l 27 1000 l 277 1135 l 527 1000 l 462 802 l 277 949 z "},"_":{"ha":963,"x_min":37,"x_max":932,"o":"m 932 90 l 912 -179 l 70 -172 l 37 74 l 932 90 z "},"`":{"ha":454,"x_min":41,"x_max":420,"o":"m 369 811 l 41 933 l 115 1158 l 420 974 l 369 811 z "},"a":{"ha":899,"x_min":-1,"x_max":884,"o":"m 644 -129 l 595 100 l 275 100 l 219 -90 l -1 -45 l 389 1111 l 540 1086 l 884 -74 l 644 -129 m 344 324 l 539 332 l 456 675 l 344 324 z "},"b":{"ha":725,"x_min":22,"x_max":702,"o":"m 264 130 q 436 144 389 113 q 484 275 479 165 q 400 415 491 414 l 265 414 l 264 130 m 595 546 q 656 441 640 510 q 694 16 701 302 q 365 -128 684 -112 l 40 -133 l 22 1093 l 264 1109 q 652 1044 621 1139 q 664 667 702 856 q 595 546 652 596 m 401 630 q 473 795 474 640 q 429 882 477 871 q 264 891 389 895 l 264 628 l 401 630 z "},"c":{"ha":718,"x_min":0,"x_max":701,"o":"m 701 106 q 441 -103 566 -83 q 275 -95 334 -117 q 70 131 111 -59 q 35 837 0 563 q 219 1063 60 1006 q 496 1093 369 1117 q 670 886 666 1056 q 669 713 672 808 l 468 690 q 460 771 465 731 q 391 840 449 837 q 302 825 346 848 q 247 715 258 805 q 272 205 227 517 q 390 137 292 113 q 559 276 453 153 l 701 106 z "},"d":{"ha":718,"x_min":38,"x_max":671,"o":"m 51 -91 l 38 1102 l 336 1100 q 671 798 670 1095 q 604 123 650 260 q 51 -91 551 -47 m 431 810 q 279 833 382 842 l 278 180 l 385 216 q 465 689 446 225 q 431 810 476 787 z "},"e":{"ha":693,"x_min":16,"x_max":650,"o":"m 627 1021 l 633 805 l 252 805 l 252 568 l 532 559 l 532 343 l 252 326 l 252 195 l 635 176 l 650 -37 l 16 -62 l 49 1062 l 627 1021 z "},"f":{"ha":709,"x_min":12,"x_max":675,"o":"m 43 -95 l 12 1113 l 675 1113 l 649 869 l 262 845 l 262 649 l 552 649 l 534 421 l 262 381 l 262 -85 l 43 -95 z "},"g":{"ha":757,"x_min":4,"x_max":722,"o":"m 354 591 l 711 591 l 695 123 q 477 -121 680 -104 q 288 -105 347 -131 q 80 138 123 -60 q 43 949 4 589 q 161 1087 60 1065 q 525 1116 397 1146 q 719 884 712 1061 q 720 707 722 804 l 511 688 q 502 778 508 734 q 431 871 488 865 q 300 867 344 889 q 247 755 257 848 q 275 206 229 551 q 422 132 300 109 q 498 234 497 143 l 504 373 l 347 363 l 354 591 z "},"h":{"ha":742,"x_min":27,"x_max":688,"o":"m 453 -118 l 453 321 l 262 301 l 262 -62 l 59 -39 l 27 1113 l 262 1136 l 262 562 l 453 551 l 453 1086 l 688 1071 l 658 -102 l 453 -118 z "},"i":{"ha":296,"x_min":24,"x_max":262,"o":"m 68 -124 l 27 771 l 262 798 l 262 -70 l 68 -124 m 47 876 l 24 1180 l 258 1171 l 240 867 l 47 876 z "},"j":{"ha":749,"x_min":19,"x_max":724,"o":"m 652 1113 q 682 47 724 385 q 553 -87 663 -66 q 226 -113 357 -140 q 27 111 35 -61 q 42 504 19 273 l 242 504 q 251 214 230 345 q 313 123 266 129 q 399 127 358 105 q 458 235 447 145 q 430 1072 477 427 l 652 1113 z "},"k":{"ha":763,"x_min":25,"x_max":724,"o":"m 509 -85 l 280 276 l 279 275 l 279 -117 l 71 -95 l 25 1102 l 279 1113 l 279 681 l 524 1055 l 713 994 l 437 495 l 724 -32 l 509 -85 z "},"l":{"ha":669,"x_min":23,"x_max":634,"o":"m 50 -94 l 23 1147 l 290 1175 l 262 182 l 634 182 l 633 -56 l 50 -94 z "},"m":{"ha":920,"x_min":23,"x_max":886,"o":"m 264 451 l 265 -113 l 64 -88 l 23 1044 l 217 1107 l 452 492 l 694 1158 l 886 1133 l 836 -42 l 648 -70 l 648 514 l 508 103 l 397 100 l 264 451 z "},"n":{"ha":813,"x_min":12,"x_max":779,"o":"m 233 1137 l 526 466 l 511 1069 l 779 1084 l 739 -123 l 551 -123 l 262 543 l 252 -50 l 57 -63 l 12 1095 l 233 1137 z "},"o":{"ha":777,"x_min":11,"x_max":761,"o":"m 352 1131 q 523 1108 476 1121 q 627 1025 594 1082 q 761 315 761 734 q 738 46 761 146 q 463 -114 694 -114 q 79 -13 203 -96 q 14 234 11 28 q 73 766 14 424 q 155 1071 121 1028 q 352 1131 203 1133 m 385 879 q 306 844 325 880 q 262 627 292 819 q 249 199 210 237 q 429 150 307 138 q 538 243 522 163 q 547 401 547 302 q 494 817 547 646 q 452 865 480 850 q 385 879 433 873 z "},"p":{"ha":718,"x_min":27,"x_max":689,"o":"m 519 389 l 282 304 l 282 -127 l 67 -91 l 27 1113 l 328 1113 q 682 968 672 1097 q 641 520 689 659 q 519 389 614 415 m 444 840 q 283 872 394 868 l 283 509 l 397 546 q 479 730 467 564 q 444 840 491 819 z "},"q":{"ha":786,"x_min":11,"x_max":761,"o":"m 474 169 q 494 199 486 181 q 547 616 547 370 q 538 773 547 714 q 429 867 522 854 q 249 818 307 878 q 262 390 210 780 q 306 173 292 198 q 360 139 321 144 l 353 193 l 463 201 l 474 169 m 395 -110 q 352 -114 375 -112 q 155 -54 203 -117 q 73 250 121 -12 q 14 783 14 593 q 79 1030 11 988 q 463 1131 203 1113 q 738 970 694 1131 q 761 702 761 871 q 627 -8 761 283 q 557 -76 603 -50 l 602 -206 l 414 -245 l 395 -110 z "},"r":{"ha":740,"x_min":27,"x_max":718,"o":"m 284 887 l 284 559 q 479 741 470 574 q 444 859 491 840 q 284 887 394 888 m 283 316 l 283 -112 l 67 -94 l 27 1113 q 681 956 671 1172 q 640 512 688 647 q 518 388 614 408 l 504 385 l 718 4 l 579 -134 l 283 316 z "},"s":{"ha":681,"x_min":-1,"x_max":795,"o":"m 377 605 q 595 -8 795 448 q 490 -91 569 -68 q 284 -114 414 -114 q 73 -54 108 -106 q 4 177 0 61 q 51 377 8 292 l 240 353 q 224 173 180 253 q 317 138 243 137 q 419 151 398 138 q 461 199 457 168 q 355 370 481 324 q 1 728 7 530 q 60 1006 -1 964 q 374 1106 172 1088 q 621 946 581 1106 q 625 658 642 846 l 448 650 q 441 749 446 709 q 345 856 429 843 q 213 763 233 854 q 377 605 193 692 z "},"t":{"ha":776,"x_min":23,"x_max":742,"o":"m 277 -90 l 264 837 l 27 837 l 23 1071 l 742 1112 l 734 837 l 515 837 l 499 -62 l 277 -90 z "},"u":{"ha":734,"x_min":-9,"x_max":718,"o":"m 664 1033 q 699 116 718 513 q 492 -107 692 -56 q 156 -79 373 -132 q 26 103 48 -54 q 47 1086 -9 392 l 282 1069 q 248 243 229 441 q 305 134 259 153 q 391 128 351 116 q 467 219 454 142 q 433 1002 503 441 l 664 1033 z "},"v":{"ha":917,"x_min":9,"x_max":902,"o":"m 277 1113 l 438 261 l 613 1156 l 902 1105 l 536 -75 l 315 -103 l 9 1059 l 277 1113 z "},"w":{"ha":1064,"x_min":12,"x_max":1044,"o":"m 270 1105 l 337 395 l 526 1076 l 714 368 l 783 1147 l 1044 1105 l 863 -50 l 620 -77 l 523 283 l 390 -116 l 184 -96 l 12 1069 l 270 1105 z "},"x":{"ha":841,"x_min":24,"x_max":805,"o":"m 558 514 l 805 -50 l 536 -104 l 412 181 l 272 -136 l 24 -43 l 267 514 l 26 1063 l 296 1113 l 412 846 l 538 1138 l 803 1072 l 558 514 z "},"y":{"ha":851,"x_min":11,"x_max":837,"o":"m 277 1113 l 414 739 l 564 1145 l 837 1113 l 534 459 l 534 -54 l 278 -115 l 300 458 l 11 1078 l 277 1113 z "},"z":{"ha":839,"x_min":19,"x_max":810,"o":"m 336 188 l 810 218 l 801 -79 l 39 -79 l 19 176 l 530 852 l 33 799 l 22 1114 l 805 1114 l 804 863 l 336 188 z "},"{":{"ha":650,"x_min":0,"x_max":0,"o":""},"|":{"ha":296,"x_min":23,"x_max":262,"o":"m 54 -315 l 23 1342 l 262 1324 l 237 -292 l 54 -315 z "},"}":{"ha":650,"x_min":0,"x_max":0,"o":""},"~":{"ha":650,"x_min":35,"x_max":654,"o":"m 467 470 q 483 628 484 593 q 478 680 483 669 q 473 692 475 692 q 427 661 440 705 q 231 459 344 442 q 81 536 106 481 q 35 789 39 618 q 39 850 35 806 l 231 843 q 202 708 203 722 q 230 650 203 663 q 267 719 238 645 q 593 810 351 995 q 643 721 630 782 q 654 586 654 669 q 650 477 654 558 l 467 470 z "},"¡":{"ha":298,"x_min":16,"x_max":267,"o":"m 228 798 l 262 -71 l 16 -98 l 62 795 l 228 798 m 154 1126 q 219 1113 203 1127 q 246 1043 231 1103 q 266 921 266 964 q 244 863 267 873 q 117 840 203 844 q 26 878 41 840 q 18 939 18 900 q 63 1103 18 1036 q 98 1121 74 1115 q 154 1126 113 1124 z "},"¢":{"ha":718,"x_min":0,"x_max":0,"o":""},"¤":{"ha":811,"x_min":3,"x_max":785,"o":"m 396 698 q 307 681 336 701 q 219 468 227 606 q 416 239 227 252 q 564 460 553 265 q 396 698 564 668 m 522 865 q 529 873 526 870 q 565 911 555 901 q 622 904 597 945 q 771 742 705 834 q 776 722 775 738 q 722 672 751 698 q 758 530 756 602 q 730 336 764 433 q 774 277 758 297 q 772 218 785 264 q 677 93 749 186 q 630 70 644 53 q 576 134 616 88 q 429 78 511 90 q 254 111 331 81 q 210 66 225 83 q 157 69 198 54 q 47 178 129 95 q 27 231 12 215 q 71 277 41 244 q 32 507 25 379 q 60 650 33 578 q 33 683 41 673 q 39 747 3 720 q 181 918 101 843 q 200 923 186 922 q 241 865 220 895 q 360 896 304 896 q 522 865 441 901 z "},"¥":{"ha":873,"x_min":11,"x_max":837,"o":"m 282 496 l 11 1078 l 277 1113 l 414 739 l 564 1145 l 837 1113 l 555 504 l 682 508 l 670 238 l 534 239 l 534 -54 l 278 -115 l 292 243 l 172 245 l 153 492 l 282 496 z "},"¦":{"ha":296,"x_min":27,"x_max":262,"o":"m 46 538 l 27 1113 l 262 1113 l 262 531 l 46 538 m 27 -85 l 27 496 l 245 496 l 262 -85 l 27 -85 z "},"§":{"ha":672,"x_min":25,"x_max":629,"o":"m 629 -54 q 427 -294 629 -283 l 228 -304 q 26 -83 26 -313 l 26 79 l 243 92 l 243 -11 q 290 -54 245 -55 l 365 -50 q 411 5 412 -47 l 411 87 q 385 127 410 123 l 228 119 q 83 164 134 115 q 25 330 26 216 l 25 553 q 39 659 25 618 q 25 754 26 694 l 25 978 q 227 1219 25 1207 l 427 1229 q 629 1021 623 1237 l 629 858 l 411 846 l 411 934 q 365 977 410 979 l 290 972 q 243 918 243 970 l 243 840 q 290 798 245 795 l 427 805 q 629 597 623 812 l 629 370 q 615 264 629 304 q 629 172 627 230 l 629 -54 m 243 414 q 290 374 246 372 l 385 379 q 411 430 412 387 l 411 509 q 366 552 410 553 l 290 549 q 243 497 243 547 l 243 414 z "},"¨":{"ha":568,"x_min":14,"x_max":528,"o":"m 127 832 q 61 846 77 832 q 34 916 50 856 q 14 1038 14 995 q 36 1095 14 1086 q 163 1118 77 1114 q 254 1082 239 1118 q 262 1020 262 1059 q 218 857 262 923 q 183 838 207 844 q 127 832 168 834 m 393 832 q 327 846 343 832 q 300 916 316 856 q 280 1038 280 995 q 302 1095 279 1086 q 429 1118 343 1114 q 520 1082 505 1118 q 528 1020 528 1059 q 484 857 528 923 q 449 838 473 844 q 393 832 433 834 z "},"©":{"ha":842,"x_min":2,"x_max":820,"o":"m 373 959 q 683 840 526 968 q 811 555 807 701 q 758 286 820 419 q 449 56 645 85 q 63 255 184 62 q 11 530 2 375 q 54 715 12 622 q 169 878 82 793 q 373 959 277 959 m 414 781 q 290 761 330 785 q 168 505 179 669 q 441 231 179 245 q 646 495 631 261 q 414 781 646 745 m 566 387 q 435 281 498 292 q 352 286 381 275 q 249 399 269 304 q 239 601 220 513 q 332 714 252 686 q 471 729 408 741 q 559 625 557 711 q 558 539 560 586 l 457 526 q 453 568 456 547 q 418 602 448 601 q 374 595 396 606 q 346 540 352 585 q 351 437 334 490 q 410 402 361 391 q 495 473 441 410 l 566 387 z "},"ª":{"ha":439,"x_min":0,"x_max":0,"o":""},"®":{"ha":838,"x_min":2,"x_max":820,"o":"m 373 959 q 683 840 526 968 q 811 555 807 701 q 758 286 820 419 q 449 56 645 85 q 63 255 184 62 q 11 530 2 375 q 54 715 12 622 q 169 878 82 793 q 373 959 277 959 m 414 781 q 290 761 330 785 q 168 505 179 669 q 441 231 179 245 q 646 495 631 261 q 414 781 646 745 m 385 617 l 385 501 q 475 557 471 507 q 459 606 481 597 q 385 617 435 617 m 385 403 l 385 403 l 385 287 l 285 294 l 266 709 q 568 645 564 734 q 549 481 572 536 q 493 431 537 439 l 488 429 l 556 336 l 492 280 l 385 403 z "},"¯":{"ha":454,"x_min":0,"x_max":0,"o":""},"°":{"ha":435,"x_min":24,"x_max":400,"o":"m 195 869 q 96 890 120 868 q 55 996 79 905 q 25 1181 25 1115 q 58 1267 24 1253 q 250 1302 120 1296 q 389 1246 366 1302 q 400 1153 400 1211 q 333 905 400 1007 q 280 877 316 886 q 195 869 257 872 m 210 1017 q 233 1020 227 1018 q 248 1027 243 1022 q 266 1095 266 1055 q 262 1121 266 1112 q 224 1137 256 1137 q 172 1126 189 1135 q 163 1103 162 1122 q 171 1053 163 1084 q 182 1023 178 1027 q 210 1017 189 1017 z "},"²":{"ha":688,"x_min":0,"x_max":0,"o":""},"³":{"ha":688,"x_min":0,"x_max":0,"o":""},"´":{"ha":454,"x_min":41,"x_max":420,"o":"m 41 974 l 347 1158 l 420 933 l 93 811 l 41 974 z "},"µ":{"ha":718,"x_min":27,"x_max":684,"o":"m 265 238 q 315 186 267 186 l 397 186 q 447 243 448 186 l 447 1109 l 684 1109 l 684 167 q 465 -84 684 -83 l 265 -84 l 265 -222 l 27 -222 l 27 1109 l 265 1109 l 265 238 z "},"¶":{"ha":705,"x_min":27,"x_max":691,"o":"m 371 1112 l 691 1112 l 691 972 l 593 972 l 593 -84 l 471 -84 l 471 972 l 371 972 l 371 -84 l 248 -84 l 248 690 l 142 690 q 27 821 27 690 l 27 981 q 142 1113 27 1112 l 371 1113 l 371 1112 z "},"·":{"ha":296,"x_min":27,"x_max":262,"o":"m 27 542 q 119 648 27 647 l 170 648 q 262 542 262 647 l 262 485 q 170 379 262 380 l 119 379 q 27 485 27 380 l 27 542 z "},"¸":{"ha":420,"x_min":19,"x_max":425,"o":"m 224 -11 q 241 -12 225 -11 q 312 -20 290 -16 q 366 -54 349 -31 q 411 -305 425 -158 q 391 -402 406 -365 q 243 -463 361 -463 q 58 -427 117 -456 q 28 -330 19 -410 q 52 -212 31 -288 l 180 -239 q 167 -298 163 -295 q 234 -307 188 -309 q 272 -294 267 -304 q 277 -266 275 -284 q 264 -189 281 -220 q 255 -184 263 -186 q 240 -181 248 -182 q 216 -219 220 -176 l 84 -168 l 81 54 l 234 59 l 224 -11 z "},"¹":{"ha":688,"x_min":0,"x_max":0,"o":""},"º":{"ha":431,"x_min":26,"x_max":402,"o":"m 197 649 q 98 669 122 648 q 57 775 81 684 q 27 960 27 895 q 60 1047 26 1032 q 252 1082 122 1076 q 391 1026 368 1082 q 402 932 402 991 q 335 685 402 787 q 282 656 318 666 q 197 649 259 652 m 212 797 q 235 800 229 798 q 250 807 245 802 q 268 876 268 835 q 264 901 268 891 q 227 916 258 916 q 174 906 191 915 q 165 883 164 902 q 173 832 165 865 q 184 802 180 806 q 212 797 191 796 z "},"¼":{"ha":1158,"x_min":0,"x_max":0,"o":""},"½":{"ha":1332,"x_min":0,"x_max":0,"o":""},"¾":{"ha":1158,"x_min":0,"x_max":0,"o":""},"¿":{"ha":718,"x_min":26,"x_max":669,"o":"m 359 821 q 294 834 311 821 q 267 905 283 844 q 248 1027 248 983 q 269 1083 247 1074 q 396 1106 310 1103 q 488 1070 473 1106 q 495 1008 495 1047 q 450 845 495 911 q 416 826 439 832 q 359 821 401 823 m 492 773 q 404 404 543 499 q 240 245 220 315 q 372 153 260 154 q 468 259 456 165 q 475 359 473 299 l 652 350 q 648 62 669 161 q 401 -98 608 -98 q 87 2 199 -81 q 28 281 26 44 q 231 579 35 479 q 287 744 320 646 l 492 773 z "},"Ç":{"ha":718,"x_min":0,"x_max":701,"o":"m 431 -56 l 425 -96 q 442 -98 426 -96 q 513 -105 490 -101 q 567 -137 550 -115 q 612 -376 625 -236 q 591 -468 606 -433 q 444 -526 562 -526 q 258 -492 317 -519 q 228 -399 220 -475 q 253 -288 232 -359 l 380 -314 q 368 -369 363 -366 q 435 -377 388 -380 q 472 -365 467 -375 q 478 -338 476 -355 q 465 -265 482 -294 q 456 -260 463 -262 q 441 -258 449 -259 q 417 -294 420 -254 l 285 -245 l 281 -50 q 275 -48 278 -49 q 70 170 111 -13 q 35 847 0 585 q 219 1065 60 1010 q 496 1093 369 1116 q 670 895 666 1058 q 669 729 672 819 l 468 707 q 460 784 465 746 q 391 850 449 847 q 302 836 346 858 q 247 730 258 817 q 272 241 227 540 q 390 175 292 153 q 559 309 453 190 l 701 145 q 441 -55 566 -37 q 431 -56 436 -56 z "},"×":{"ha":578,"x_min":14,"x_max":559,"o":"m 437 509 l 559 381 l 386 197 l 281 315 l 176 182 l 14 380 l 117 499 l 20 609 l 156 802 l 273 680 l 376 797 l 545 642 l 437 509 z "},"ß":{"ha":725,"x_min":27,"x_max":691,"o":"m 336 197 l 404 199 q 454 258 455 201 l 454 298 q 404 393 455 394 l 336 391 l 336 666 l 404 668 q 454 758 455 669 l 454 799 q 404 854 455 856 l 265 850 l 265 -76 l 45 -64 l 27 1113 l 471 1128 q 691 884 691 1134 l 691 690 q 641 535 691 584 q 691 385 691 490 l 691 190 q 471 -68 691 -60 l 336 -73 l 336 197 z "},"à":{"ha":931,"x_min":27,"x_max":912,"o":"m 27 -74 l 385 1109 l 528 1091 l 912 -45 l 692 -90 l 636 100 l 315 100 l 267 -129 l 27 -74 m 455 675 l 372 332 l 567 324 l 455 675 m 622 1128 l 294 1250 l 368 1474 l 673 1291 l 622 1128 z "},"á":{"ha":929,"x_min":27,"x_max":912,"o":"m 27 -74 l 385 1109 l 528 1091 l 912 -45 l 692 -90 l 636 100 l 315 100 l 267 -129 l 27 -74 m 455 675 l 372 332 l 567 324 l 455 675 m 294 1293 l 600 1476 l 673 1253 l 346 1131 l 294 1293 z "},"â":{"ha":931,"x_min":27,"x_max":912,"o":"m 27 -74 l 385 1109 l 528 1091 l 912 -45 l 692 -90 l 636 100 l 315 100 l 267 -129 l 27 -74 m 455 675 l 372 332 l 567 324 l 455 675 m 461 1261 l 276 1115 l 211 1312 l 461 1447 l 711 1312 l 646 1115 l 461 1261 z "},"ã":{"ha":928,"x_min":27,"x_max":912,"o":"m 27 -74 l 385 1109 l 528 1091 l 912 -45 l 692 -90 l 636 100 l 315 100 l 267 -129 l 27 -74 m 455 675 l 372 332 l 567 324 l 455 675 m 555 1128 q 568 1266 569 1236 q 564 1312 568 1303 q 559 1322 561 1322 q 519 1295 531 1334 q 349 1120 447 1105 q 218 1186 240 1139 q 178 1408 182 1257 q 182 1460 178 1422 l 348 1454 q 323 1336 325 1348 q 347 1286 323 1297 q 380 1346 355 1282 q 665 1426 453 1586 q 708 1348 697 1400 q 718 1230 718 1303 q 714 1135 718 1205 l 555 1128 z "},"ä":{"ha":931,"x_min":27,"x_max":912,"o":"m 27 -74 l 385 1109 l 528 1091 l 912 -45 l 692 -90 l 636 100 l 315 100 l 267 -129 l 27 -74 m 455 675 l 372 332 l 567 324 l 455 675 m 315 1141 q 250 1154 266 1141 q 222 1225 239 1164 q 203 1347 203 1303 q 224 1403 202 1394 q 352 1426 266 1423 q 443 1390 428 1426 q 450 1329 450 1367 q 406 1165 450 1232 q 372 1146 395 1152 q 315 1141 356 1143 m 581 1141 q 515 1154 532 1141 q 488 1225 505 1164 q 469 1347 469 1303 q 490 1403 468 1394 q 618 1426 532 1423 q 709 1390 694 1426 q 716 1329 716 1367 q 672 1165 716 1232 q 637 1146 661 1152 q 581 1141 622 1143 z "},"å":{"ha":925,"x_min":27,"x_max":912,"o":"m 455 675 l 372 332 l 567 324 l 455 675 m 480 1150 q 495 1158 490 1153 q 513 1226 513 1186 q 510 1252 513 1242 q 472 1267 504 1267 q 419 1257 436 1265 q 410 1234 410 1253 q 418 1183 410 1215 q 430 1154 425 1158 q 457 1148 437 1147 q 480 1150 474 1149 m 553 1016 l 912 -45 l 692 -90 l 636 100 l 315 100 l 267 -129 l 27 -74 l 356 1013 q 344 1021 349 1016 q 302 1126 326 1036 q 273 1311 273 1246 q 306 1398 271 1383 q 498 1432 368 1426 q 636 1377 614 1432 q 648 1283 648 1342 q 581 1036 648 1138 q 553 1016 570 1025 z "},"æ":{"ha":1301,"x_min":-1,"x_max":1264,"o":"m 427 675 l 343 332 l 538 324 l 427 675 m 663 -90 l 608 100 l 287 100 l 238 -129 l -1 -74 l 357 1109 l 499 1091 l 642 669 l 630 1080 l 1264 1053 l 1249 833 l 867 812 l 867 677 l 1146 658 l 1146 434 l 867 425 l 867 178 l 1247 178 l 1241 -47 l 663 -90 z "},"ç":{"ha":718,"x_min":0,"x_max":701,"o":"m 431 -56 l 425 -96 q 442 -98 426 -96 q 513 -105 490 -101 q 567 -137 550 -115 q 612 -376 625 -236 q 591 -468 606 -433 q 444 -526 562 -526 q 258 -492 317 -519 q 228 -399 220 -475 q 253 -288 232 -359 l 380 -314 q 368 -369 363 -366 q 435 -377 388 -380 q 472 -365 467 -375 q 478 -338 476 -355 q 465 -265 482 -294 q 456 -260 463 -262 q 441 -258 449 -259 q 417 -294 420 -254 l 285 -245 l 281 -50 q 275 -48 278 -49 q 70 170 111 -13 q 35 847 0 585 q 219 1065 60 1010 q 496 1093 369 1116 q 670 895 666 1058 q 669 729 672 819 l 468 707 q 460 784 465 746 q 391 850 449 847 q 302 836 346 858 q 247 730 258 817 q 272 241 227 540 q 390 175 292 153 q 559 309 453 190 l 701 145 q 441 -55 566 -37 q 431 -56 436 -56 z "},"è":{"ha":709,"x_min":27,"x_max":661,"o":"m 60 -62 l 27 1062 l 661 1036 l 646 824 l 264 805 l 264 674 l 543 656 l 543 441 l 264 432 l 264 195 l 644 195 l 638 -22 l 60 -62 m 521 1128 l 193 1250 l 267 1474 l 572 1291 l 521 1128 z "},"é":{"ha":709,"x_min":27,"x_max":661,"o":"m 60 -62 l 27 1062 l 661 1036 l 646 824 l 264 805 l 264 674 l 543 656 l 543 441 l 264 432 l 264 195 l 644 195 l 638 -22 l 60 -62 m 193 1291 l 498 1474 l 572 1250 l 245 1128 l 193 1291 z "},"ê":{"ha":709,"x_min":27,"x_max":661,"o":"m 60 -62 l 27 1062 l 661 1036 l 646 824 l 264 805 l 264 674 l 543 656 l 543 441 l 264 432 l 264 195 l 644 195 l 638 -22 l 60 -62 m 363 1265 l 178 1120 l 113 1316 l 363 1452 l 613 1316 l 548 1120 l 363 1265 z "},"ë":{"ha":709,"x_min":27,"x_max":661,"o":"m 60 -62 l 27 1062 l 661 1036 l 646 824 l 264 805 l 264 674 l 543 656 l 543 441 l 264 432 l 264 195 l 644 195 l 638 -22 l 60 -62 m 222 1149 q 156 1163 172 1149 q 129 1233 145 1173 q 109 1355 109 1312 q 131 1412 109 1402 q 258 1435 172 1431 q 349 1398 334 1435 q 357 1337 357 1375 q 313 1174 357 1240 q 278 1154 302 1160 q 222 1149 262 1152 m 488 1149 q 422 1163 438 1149 q 395 1233 411 1173 q 375 1355 375 1312 q 397 1412 374 1402 q 524 1435 438 1431 q 615 1398 600 1435 q 623 1337 623 1375 q 578 1174 623 1240 q 544 1154 568 1160 q 488 1149 528 1152 z "},"ì":{"ha":454,"x_min":33,"x_max":412,"o":"m 134 -124 l 92 771 l 327 798 l 327 -70 l 134 -124 m 361 888 l 33 1010 l 107 1235 l 412 1051 l 361 888 z "},"í":{"ha":454,"x_min":33,"x_max":412,"o":"m 134 -124 l 92 771 l 327 798 l 327 -70 l 134 -124 m 33 1084 l 338 1267 l 412 1043 l 85 921 l 33 1084 z "},"î":{"ha":561,"x_min":35,"x_max":534,"o":"m 214 -124 l 172 771 l 407 798 l 407 -70 l 214 -124 m 285 1023 l 100 877 l 35 1074 l 285 1209 l 534 1074 l 469 877 l 285 1023 z "},"ï":{"ha":568,"x_min":33,"x_max":547,"o":"m 218 -124 l 177 771 l 412 798 l 412 -70 l 218 -124 m 412 924 q 347 939 363 924 q 319 1009 336 949 q 300 1131 300 1088 q 321 1187 299 1178 q 449 1211 363 1207 q 540 1175 525 1211 q 547 1113 547 1152 q 503 949 547 1016 q 469 930 492 937 q 412 924 453 927 m 146 924 q 81 939 97 924 q 54 1009 70 949 q 34 1131 34 1088 q 56 1187 33 1178 q 183 1211 97 1207 q 274 1175 259 1211 q 281 1113 281 1152 q 237 949 281 1016 q 203 930 227 937 q 146 924 187 927 z "},"ð":{"ha":772,"x_min":0,"x_max":0,"o":""},"ñ":{"ha":813,"x_min":27,"x_max":795,"o":"m 249 1137 l 542 466 l 526 1069 l 795 1084 l 755 -123 l 566 -123 l 277 543 l 267 -50 l 73 -63 l 27 1095 l 249 1137 m 557 1126 q 571 1264 572 1234 q 567 1310 571 1301 q 562 1320 564 1320 q 522 1293 534 1332 q 351 1117 450 1102 q 220 1183 243 1137 q 180 1405 184 1255 q 184 1458 180 1420 l 351 1452 q 326 1333 328 1346 q 350 1283 326 1295 q 382 1343 357 1279 q 668 1423 456 1584 q 711 1345 700 1398 q 721 1227 721 1300 q 717 1133 720 1203 l 557 1126 z "},"ò":{"ha":812,"x_min":27,"x_max":777,"o":"m 368 -114 q 172 -54 220 -117 q 90 250 137 -12 q 30 783 30 593 q 96 1030 27 988 q 479 1131 219 1113 q 754 970 710 1131 q 777 702 777 871 q 644 -8 777 283 q 539 -91 610 -65 q 368 -114 492 -104 m 401 138 q 468 151 450 144 q 510 199 496 166 q 563 616 563 370 q 554 773 563 714 q 445 867 538 854 q 265 818 323 878 q 278 390 227 780 q 322 173 309 198 q 401 138 341 137 m 532 1141 l 204 1263 l 278 1488 l 583 1305 l 532 1141 z "},"ó":{"ha":819,"x_min":27,"x_max":777,"o":"m 368 -114 q 172 -54 220 -117 q 90 250 137 -12 q 30 783 30 593 q 96 1030 27 988 q 479 1131 219 1113 q 754 970 710 1131 q 777 702 777 871 q 644 -8 777 283 q 539 -91 610 -65 q 368 -114 492 -104 m 401 138 q 468 151 450 144 q 510 199 496 166 q 563 616 563 370 q 554 773 563 714 q 445 867 538 854 q 265 818 323 878 q 278 390 227 780 q 322 173 309 198 q 401 138 341 137 m 200 1301 l 505 1484 l 579 1259 l 252 1137 l 200 1301 z "},"ô":{"ha":800,"x_min":27,"x_max":777,"o":"m 368 -114 q 172 -54 220 -117 q 90 250 137 -12 q 30 783 30 593 q 96 1030 27 988 q 479 1131 219 1113 q 754 970 710 1131 q 777 702 777 871 q 644 -8 777 283 q 539 -91 610 -65 q 368 -114 492 -104 m 401 138 q 468 151 450 144 q 510 199 496 166 q 563 616 563 370 q 554 773 563 714 q 445 867 538 854 q 265 818 323 878 q 278 390 227 780 q 322 173 309 198 q 401 138 341 137 m 409 1296 l 224 1150 l 159 1348 l 409 1482 l 659 1348 l 593 1150 l 409 1296 z "},"õ":{"ha":817,"x_min":27,"x_max":777,"o":"m 468 151 q 510 199 496 166 q 563 616 563 370 q 554 773 563 714 q 445 867 538 854 q 265 818 323 878 q 278 390 227 780 q 322 173 309 198 q 401 138 341 137 q 468 151 450 144 m 368 -114 q 172 -54 220 -117 q 90 250 137 -12 q 30 783 30 593 q 96 1030 27 988 q 479 1131 219 1113 q 754 970 710 1131 q 777 702 777 871 q 644 -8 777 283 q 539 -91 610 -65 q 368 -114 492 -104 m 514 1286 q 510 1328 514 1320 q 505 1338 507 1337 q 467 1313 479 1348 q 305 1152 399 1137 q 180 1213 201 1169 q 142 1415 146 1278 q 146 1463 142 1429 l 304 1457 q 281 1350 282 1361 q 304 1303 281 1314 q 334 1358 311 1300 q 606 1432 404 1579 q 647 1360 637 1409 q 656 1253 656 1319 q 652 1165 656 1230 l 501 1160 q 514 1286 515 1258 z "},"ö":{"ha":800,"x_min":27,"x_max":777,"o":"m 368 -114 q 172 -54 220 -117 q 90 250 137 -12 q 30 783 30 593 q 96 1030 27 988 q 479 1131 219 1113 q 754 970 710 1131 q 777 702 777 871 q 644 -8 777 283 q 539 -91 610 -65 q 368 -114 492 -104 m 401 138 q 468 151 450 144 q 510 199 496 166 q 563 616 563 370 q 554 773 563 714 q 445 867 538 854 q 265 818 323 878 q 278 390 227 780 q 322 173 309 198 q 401 138 341 137 m 237 1177 q 172 1192 188 1177 q 144 1261 161 1201 q 125 1383 125 1341 q 146 1440 124 1431 q 274 1463 188 1459 q 365 1427 350 1463 q 372 1365 372 1404 q 328 1202 372 1269 q 294 1183 317 1189 q 237 1177 278 1180 m 503 1177 q 437 1192 454 1177 q 410 1261 427 1201 q 391 1383 391 1341 q 412 1440 390 1431 q 540 1463 454 1459 q 631 1427 616 1463 q 638 1365 638 1404 q 594 1202 638 1269 q 559 1183 583 1189 q 503 1177 544 1180 z "},"÷":{"ha":296,"x_min":15,"x_max":263,"o":"m 128 -98 q 62 -84 79 -98 q 35 -14 52 -74 q 16 109 16 65 q 37 165 15 155 q 165 188 79 184 q 256 151 241 188 q 263 90 263 128 q 219 -73 263 -7 q 184 -93 208 -87 q 128 -98 169 -96 m 128 277 q 62 291 79 277 q 35 361 52 301 q 16 484 16 440 q 37 540 15 530 q 165 563 79 559 q 256 526 241 563 q 263 465 263 503 q 219 302 263 368 q 184 282 208 288 q 128 277 169 279 z "},"ø":{"ha":685,"x_min":0,"x_max":0,"o":""},"ù":{"ha":975,"x_min":39,"x_max":957,"o":"m 431 151 q 490 138 452 137 q 557 151 539 144 q 600 199 586 166 q 652 557 646 349 l 431 151 m 353 511 l 522 867 q 355 818 410 876 q 353 511 323 786 m 852 926 q 867 702 867 836 q 733 -8 867 283 q 629 -91 700 -65 q 458 -114 582 -104 q 302 -87 356 -116 l 222 -234 l 39 -150 l 193 175 q 179 250 186 210 q 119 783 119 593 q 185 1030 117 988 q 569 1131 309 1113 q 644 1126 610 1131 l 717 1279 l 957 1120 l 852 926 z "},"ú":{"ha":718,"x_min":27,"x_max":754,"o":"m 701 1033 q 736 116 754 513 q 529 -107 728 -56 q 193 -79 410 -132 q 62 103 85 -54 q 83 1086 27 392 l 319 1069 q 285 243 265 441 q 342 134 296 153 q 428 128 387 116 q 504 219 490 142 q 469 1002 540 441 l 701 1033 m 538 1128 l 210 1250 l 284 1474 l 589 1291 l 538 1128 z "},"û":{"ha":718,"x_min":27,"x_max":754,"o":"m 701 1033 q 736 116 754 513 q 529 -107 728 -56 q 193 -79 410 -132 q 62 103 85 -54 q 83 1086 27 392 l 319 1069 q 285 243 265 441 q 342 134 296 153 q 428 128 387 116 q 504 219 490 142 q 469 1002 540 441 l 701 1033 m 210 1291 l 515 1474 l 589 1250 l 262 1128 l 210 1291 z "},"ü":{"ha":718,"x_min":27,"x_max":754,"o":"m 701 1033 q 736 116 754 513 q 529 -107 728 -56 q 193 -79 410 -132 q 62 103 85 -54 q 83 1086 27 392 l 319 1069 q 285 243 265 441 q 342 134 296 153 q 428 128 387 116 q 504 219 490 142 q 469 1002 540 441 l 701 1033 m 415 1263 l 230 1117 l 165 1314 l 415 1450 l 665 1314 l 600 1117 l 415 1263 z "},"ý":{"ha":718,"x_min":27,"x_max":754,"o":"m 701 1033 q 736 116 754 513 q 529 -107 728 -56 q 193 -79 410 -132 q 62 103 85 -54 q 83 1086 27 392 l 319 1069 q 285 243 265 441 q 342 134 296 153 q 428 128 387 116 q 504 219 490 142 q 469 1002 540 441 l 701 1033 m 261 1149 q 195 1163 212 1149 q 168 1233 184 1173 q 149 1355 149 1312 q 170 1412 148 1402 q 298 1435 212 1431 q 389 1398 374 1435 q 396 1337 396 1375 q 352 1174 396 1240 q 317 1154 341 1160 q 261 1149 302 1152 m 527 1149 q 461 1163 477 1149 q 434 1233 450 1173 q 414 1355 414 1312 q 436 1412 414 1402 q 564 1435 477 1431 q 654 1398 640 1435 q 662 1337 662 1375 q 618 1174 662 1240 q 583 1154 607 1160 q 527 1149 568 1152 z "},"þ":{"ha":685,"x_min":0,"x_max":0,"o":""},"ı":{"ha":349,"x_min":0,"x_max":0,"o":""},"ˆ":{"ha":561,"x_min":27,"x_max":527,"o":"m 277 949 l 92 802 l 27 1000 l 277 1135 l 527 1000 l 462 802 l 277 949 z "},"ˇ":{"ha":694,"x_min":0,"x_max":0,"o":""},"ˉ":{"ha":694,"x_min":0,"x_max":0,"o":""},"˘":{"ha":694,"x_min":0,"x_max":0,"o":""},"˙":{"ha":296,"x_min":27,"x_max":262,"o":"m 27 1316 q 119 1422 27 1421 l 170 1422 q 262 1316 262 1421 l 262 1259 q 170 1153 262 1154 l 119 1153 q 27 1259 27 1154 l 27 1316 z "},"˚":{"ha":500,"x_min":58,"x_max":434,"o":"m 229 742 q 130 763 154 741 q 89 869 113 778 q 59 1054 59 988 q 92 1141 58 1126 q 284 1175 154 1169 q 422 1120 400 1175 q 434 1026 434 1084 q 367 779 434 881 q 314 750 350 760 q 229 742 291 745 m 243 890 q 267 893 260 891 q 281 901 277 895 q 300 968 300 928 q 296 994 300 985 q 258 1010 290 1010 q 205 1000 222 1008 q 197 977 196 996 q 205 926 197 958 q 216 896 212 900 q 243 890 223 890 z "},"˛":{"ha":694,"x_min":0,"x_max":0,"o":""},"˜":{"ha":650,"x_min":51,"x_max":591,"o":"m 428 810 q 441 947 442 917 q 437 993 441 984 q 433 1004 434 1003 q 393 977 404 1015 q 222 800 320 785 q 91 867 113 819 q 51 1088 55 938 q 55 1141 51 1103 l 221 1135 q 197 1017 198 1029 q 220 966 197 978 q 253 1027 228 962 q 538 1106 326 1267 q 581 1028 570 1082 q 591 911 591 983 q 587 816 591 886 l 428 810 z "},"˝":{"ha":694,"x_min":0,"x_max":0,"o":""},"–":{"ha":751,"x_min":0,"x_max":0,"o":""},"†":{"ha":688,"x_min":0,"x_max":0,"o":""},"‡":{"ha":688,"x_min":0,"x_max":0,"o":""},"•":{"ha":364,"x_min":27,"x_max":330,"o":"m 27 667 q 144 801 27 800 l 212 801 q 330 667 330 800 l 330 590 q 212 456 330 456 l 144 456 q 27 590 27 456 l 27 667 z "},"₣":{"ha":688,"x_min":0,"x_max":0,"o":""},"₤":{"ha":688,"x_min":0,"x_max":0,"o":""},"₧":{"ha":1375,"x_min":0,"x_max":0,"o":""},"€":{"ha":829,"x_min":11,"x_max":804,"o":"m 763 269 q 671 -8 732 123 q 567 -91 638 -65 q 396 -114 520 -104 q 199 -54 248 -117 q 117 250 165 -12 q 58 783 58 593 q 123 1030 55 988 q 507 1131 247 1113 q 782 970 738 1131 q 804 749 802 885 l 585 749 q 582 773 583 762 q 473 867 566 854 q 293 818 351 878 q 306 390 254 780 q 350 173 336 198 q 429 138 369 137 q 496 151 477 144 q 538 199 524 166 q 557 269 550 238 l 763 269 m 721 724 l 705 525 l 37 530 l 11 712 l 721 724 m 721 500 l 705 300 l 37 305 l 11 488 l 721 500 z "},"№":{"ha":1540,"x_min":0,"x_max":0,"o":""},"∂":{"ha":688,"x_min":0,"x_max":0,"o":""},"∆":{"ha":733,"x_min":0,"x_max":0,"o":""},"∏":{"ha":1027,"x_min":0,"x_max":0,"o":""},"∑":{"ha":818,"x_min":0,"x_max":0,"o":""},"−":{"ha":688,"x_min":0,"x_max":0,"o":""},"√":{"ha":688,"x_min":0,"x_max":0,"o":""},"∞":{"ha":688,"x_min":0,"x_max":0,"o":""},"∫":{"ha":451,"x_min":0,"x_max":0,"o":""},"≈":{"ha":688,"x_min":0,"x_max":0,"o":""},"≤":{"ha":688,"x_min":0,"x_max":0,"o":""},"≥":{"ha":688,"x_min":0,"x_max":0,"o":""},"":{"ha":728,"x_min":0,"x_max":0,"o":""},"":{"ha":733,"x_min":0,"x_max":0,"o":""},"À":{"ha":931,"x_min":27,"x_max":912,"o":"m 27 -74 l 385 1109 l 528 1091 l 912 -45 l 692 -90 l 636 100 l 315 100 l 267 -129 l 27 -74 m 455 675 l 372 332 l 567 324 l 455 675 m 622 1089 l 294 1211 l 368 1436 l 673 1252 l 622 1089 z "},"Á":{"ha":929,"x_min":27,"x_max":912,"o":"m 27 -74 l 385 1109 l 528 1091 l 912 -45 l 692 -90 l 636 100 l 315 100 l 267 -129 l 27 -74 m 455 675 l 372 332 l 567 324 l 455 675 m 294 1254 l 600 1438 l 673 1213 l 346 1091 l 294 1254 z "},"Â":{"ha":931,"x_min":27,"x_max":912,"o":"m 27 -74 l 385 1109 l 528 1091 l 912 -45 l 692 -90 l 636 100 l 315 100 l 267 -129 l 27 -74 m 455 675 l 372 332 l 567 324 l 455 675 m 461 1223 l 276 1076 l 211 1274 l 461 1409 l 711 1274 l 646 1076 l 461 1223 z "},"Ã":{"ha":928,"x_min":27,"x_max":912,"o":"m 27 -74 l 385 1109 l 528 1091 l 912 -45 l 692 -90 l 636 100 l 315 100 l 267 -129 l 27 -74 m 455 675 l 372 332 l 567 324 l 455 675 m 553 1079 q 566 1217 567 1186 q 562 1262 566 1253 q 557 1273 559 1272 q 517 1246 529 1284 q 347 1069 445 1055 q 216 1136 238 1088 q 176 1358 180 1207 q 180 1411 176 1373 l 346 1404 q 321 1286 323 1298 q 345 1236 321 1247 q 378 1296 353 1232 q 663 1375 451 1537 q 706 1297 695 1351 q 716 1180 716 1253 q 712 1085 715 1155 l 553 1079 z "},"Ä":{"ha":931,"x_min":27,"x_max":912,"o":"m 27 -74 l 385 1109 l 528 1091 l 912 -45 l 692 -90 l 636 100 l 315 100 l 267 -129 l 27 -74 m 455 675 l 372 332 l 567 324 l 455 675 m 315 1103 q 250 1116 266 1103 q 222 1187 239 1126 q 203 1309 203 1265 q 224 1365 202 1356 q 352 1388 266 1385 q 443 1352 428 1388 q 450 1291 450 1329 q 406 1127 450 1194 q 372 1108 395 1114 q 315 1103 356 1105 m 581 1103 q 515 1116 532 1103 q 488 1187 505 1126 q 469 1309 469 1265 q 490 1365 468 1356 q 618 1388 532 1385 q 709 1352 694 1388 q 716 1291 716 1329 q 672 1127 716 1194 q 637 1108 661 1114 q 581 1103 622 1105 z "},"Å":{"ha":925,"x_min":27,"x_max":912,"o":"m 455 675 l 372 332 l 567 324 l 455 675 m 480 1150 q 495 1158 490 1153 q 513 1226 513 1186 q 510 1252 513 1242 q 472 1267 504 1267 q 419 1257 436 1265 q 410 1234 410 1253 q 418 1183 410 1215 q 430 1154 425 1158 q 457 1148 437 1147 q 480 1150 474 1149 m 553 1016 l 912 -45 l 692 -90 l 636 100 l 315 100 l 267 -129 l 27 -74 l 356 1013 q 344 1021 349 1016 q 302 1126 326 1036 q 273 1311 273 1246 q 306 1398 271 1383 q 498 1432 368 1426 q 636 1377 614 1432 q 648 1283 648 1342 q 581 1036 648 1138 q 553 1016 570 1025 z "},"Æ":{"ha":1301,"x_min":-1,"x_max":1264,"o":"m 427 675 l 343 332 l 538 324 l 427 675 m 663 -90 l 608 100 l 287 100 l 238 -129 l -1 -74 l 357 1109 l 499 1091 l 642 669 l 630 1080 l 1264 1053 l 1249 833 l 867 812 l 867 677 l 1146 658 l 1146 434 l 867 425 l 867 178 l 1247 178 l 1241 -47 l 663 -90 z "},"È":{"ha":709,"x_min":27,"x_max":661,"o":"m 60 -62 l 27 1062 l 661 1036 l 646 824 l 264 805 l 264 674 l 543 656 l 543 441 l 264 432 l 264 195 l 644 195 l 638 -22 l 60 -62 m 521 1089 l 193 1211 l 267 1436 l 572 1252 l 521 1089 z "},"É":{"ha":709,"x_min":27,"x_max":661,"o":"m 60 -62 l 27 1062 l 661 1036 l 646 824 l 264 805 l 264 674 l 543 656 l 543 441 l 264 432 l 264 195 l 644 195 l 638 -22 l 60 -62 m 193 1252 l 498 1436 l 572 1211 l 245 1089 l 193 1252 z "},"Ê":{"ha":709,"x_min":27,"x_max":661,"o":"m 60 -62 l 27 1062 l 661 1036 l 646 824 l 264 805 l 264 674 l 543 656 l 543 441 l 264 432 l 264 195 l 644 195 l 638 -22 l 60 -62 m 363 1227 l 178 1080 l 113 1278 l 363 1413 l 613 1278 l 548 1080 l 363 1227 z "},"Ë":{"ha":709,"x_min":27,"x_max":661,"o":"m 60 -62 l 27 1062 l 661 1036 l 646 824 l 264 805 l 264 674 l 543 656 l 543 441 l 264 432 l 264 195 l 644 195 l 638 -22 l 60 -62 m 222 1110 q 156 1124 172 1110 q 129 1194 145 1134 q 109 1316 109 1273 q 131 1373 109 1364 q 258 1396 172 1392 q 349 1360 334 1396 q 357 1298 357 1337 q 313 1135 357 1201 q 278 1116 302 1122 q 222 1110 262 1112 m 488 1110 q 422 1124 438 1110 q 395 1194 411 1134 q 375 1316 375 1273 q 397 1373 374 1364 q 524 1396 438 1392 q 615 1360 600 1396 q 623 1298 623 1337 q 578 1135 623 1201 q 544 1116 568 1122 q 488 1110 528 1112 z "},"Ì":{"ha":454,"x_min":33,"x_max":412,"o":"m 134 -124 l 92 771 l 327 798 l 327 -70 l 134 -124 m 361 888 l 33 1010 l 107 1235 l 412 1051 l 361 888 z "},"Í":{"ha":454,"x_min":33,"x_max":412,"o":"m 134 -124 l 92 771 l 327 798 l 327 -70 l 134 -124 m 33 1084 l 338 1267 l 412 1043 l 85 921 l 33 1084 z "},"Î":{"ha":561,"x_min":35,"x_max":534,"o":"m 214 -124 l 172 771 l 407 798 l 407 -70 l 214 -124 m 285 1023 l 100 877 l 35 1074 l 285 1209 l 534 1074 l 469 877 l 285 1023 z "},"Ï":{"ha":568,"x_min":33,"x_max":547,"o":"m 218 -124 l 177 771 l 412 798 l 412 -70 l 218 -124 m 412 924 q 347 939 363 924 q 319 1009 336 949 q 300 1131 300 1088 q 321 1187 299 1178 q 449 1211 363 1207 q 540 1175 525 1211 q 547 1113 547 1152 q 503 949 547 1016 q 469 930 492 937 q 412 924 453 927 m 146 924 q 81 939 97 924 q 54 1009 70 949 q 34 1131 34 1088 q 56 1187 33 1178 q 183 1211 97 1207 q 274 1175 259 1211 q 281 1113 281 1152 q 237 949 281 1016 q 203 930 227 937 q 146 924 187 927 z "},"Ñ":{"ha":813,"x_min":27,"x_max":795,"o":"m 249 1137 l 542 466 l 526 1069 l 795 1084 l 755 -123 l 566 -123 l 277 543 l 267 -50 l 73 -63 l 27 1095 l 249 1137 m 557 1082 q 571 1219 572 1189 q 567 1265 571 1256 q 562 1276 564 1275 q 522 1249 534 1287 q 351 1072 450 1057 q 220 1139 243 1091 q 180 1360 184 1210 q 184 1413 180 1375 l 351 1407 q 326 1289 328 1301 q 350 1238 326 1250 q 382 1299 357 1234 q 668 1378 456 1539 q 711 1300 700 1354 q 721 1183 721 1255 q 717 1088 720 1158 l 557 1082 z "},"Ò":{"ha":812,"x_min":27,"x_max":777,"o":"m 368 -114 q 172 -54 220 -117 q 90 250 137 -12 q 30 783 30 593 q 96 1030 27 988 q 479 1131 219 1113 q 754 970 710 1131 q 777 702 777 871 q 644 -8 777 283 q 539 -91 610 -65 q 368 -114 492 -104 m 401 138 q 468 151 450 144 q 510 199 496 166 q 563 616 563 370 q 554 773 563 714 q 445 867 538 854 q 265 818 323 878 q 278 390 227 780 q 322 173 309 198 q 401 138 341 137 m 532 1089 l 204 1211 l 278 1436 l 583 1252 l 532 1089 z "},"Ó":{"ha":819,"x_min":27,"x_max":777,"o":"m 368 -114 q 172 -54 220 -117 q 90 250 137 -12 q 30 783 30 593 q 96 1030 27 988 q 479 1131 219 1113 q 754 970 710 1131 q 777 702 777 871 q 644 -8 777 283 q 539 -91 610 -65 q 368 -114 492 -104 m 401 138 q 468 151 450 144 q 510 199 496 166 q 563 616 563 370 q 554 773 563 714 q 445 867 538 854 q 265 818 323 878 q 278 390 227 780 q 322 173 309 198 q 401 138 341 137 m 200 1260 l 505 1444 l 579 1219 l 252 1097 l 200 1260 z "},"Ô":{"ha":800,"x_min":27,"x_max":777,"o":"m 368 -114 q 172 -54 220 -117 q 90 250 137 -12 q 30 783 30 593 q 96 1030 27 988 q 479 1131 219 1113 q 754 970 710 1131 q 777 702 777 871 q 644 -8 777 283 q 539 -91 610 -65 q 368 -114 492 -104 m 401 138 q 468 151 450 144 q 510 199 496 166 q 563 616 563 370 q 554 773 563 714 q 445 867 538 854 q 265 818 323 878 q 278 390 227 780 q 322 173 309 198 q 401 138 341 137 m 409 1237 l 224 1090 l 159 1288 l 409 1423 l 659 1288 l 593 1090 l 409 1237 z "},"Õ":{"ha":718,"x_min":27,"x_max":777,"o":"m 468 151 q 510 199 496 166 q 563 616 563 370 q 554 773 563 714 q 445 867 538 854 q 265 818 323 878 q 278 390 227 780 q 322 173 309 198 q 401 138 341 137 q 468 151 450 144 m 368 -114 q 172 -54 220 -117 q 90 250 137 -12 q 30 783 30 593 q 96 1030 27 988 q 479 1131 219 1113 q 754 970 710 1131 q 777 702 777 871 q 644 -8 777 283 q 539 -91 610 -65 q 368 -114 492 -104 m 514 1271 q 510 1313 514 1305 q 505 1323 507 1322 q 467 1298 479 1333 q 305 1137 399 1122 q 180 1198 201 1154 q 142 1400 146 1263 q 146 1449 142 1414 l 304 1442 q 281 1335 282 1346 q 304 1289 281 1299 q 334 1343 311 1285 q 606 1417 404 1564 q 647 1345 637 1394 q 656 1238 656 1304 q 652 1150 656 1215 l 501 1145 q 514 1271 515 1243 z "},"Ö":{"ha":718,"x_min":27,"x_max":777,"o":"m 368 -114 q 172 -54 220 -117 q 90 250 137 -12 q 30 783 30 593 q 96 1030 27 988 q 479 1131 219 1113 q 754 970 710 1131 q 777 702 777 871 q 644 -8 777 283 q 539 -91 610 -65 q 368 -114 492 -104 m 401 138 q 468 151 450 144 q 510 199 496 166 q 563 616 563 370 q 554 773 563 714 q 445 867 538 854 q 265 818 323 878 q 278 390 227 780 q 322 173 309 198 q 401 138 341 137 m 233 1110 q 167 1124 183 1110 q 140 1194 156 1134 q 120 1316 120 1273 q 142 1373 119 1364 q 269 1396 183 1392 q 360 1360 345 1396 q 368 1298 368 1337 q 323 1135 368 1201 q 289 1116 313 1122 q 233 1110 273 1112 m 498 1110 q 433 1124 449 1110 q 406 1194 422 1134 q 386 1316 386 1273 q 408 1373 385 1364 q 535 1396 449 1392 q 626 1360 611 1396 q 633 1298 633 1337 q 589 1135 633 1201 q 555 1116 578 1122 q 498 1110 539 1112 z "},"Ø":{"ha":975,"x_min":39,"x_max":957,"o":"m 431 151 q 490 138 452 137 q 557 151 539 144 q 600 199 586 166 q 652 557 646 349 l 431 151 m 353 511 l 522 867 q 355 818 410 876 q 353 511 323 786 m 852 926 q 867 702 867 836 q 733 -8 867 283 q 629 -91 700 -65 q 458 -114 582 -104 q 302 -87 356 -116 l 222 -234 l 39 -150 l 193 175 q 179 250 186 210 q 119 783 119 593 q 185 1030 117 988 q 569 1131 309 1113 q 644 1126 610 1131 l 717 1279 l 957 1120 l 852 926 z "},"Ù":{"ha":718,"x_min":27,"x_max":754,"o":"m 701 1033 q 736 116 754 513 q 529 -107 728 -56 q 193 -79 410 -132 q 62 103 85 -54 q 83 1086 27 392 l 319 1069 q 285 243 265 441 q 342 134 296 153 q 428 128 387 116 q 504 219 490 142 q 469 1002 540 441 l 701 1033 m 538 1089 l 210 1211 l 284 1436 l 589 1252 l 538 1089 z "},"Ú":{"ha":718,"x_min":27,"x_max":754,"o":"m 701 1033 q 736 116 754 513 q 529 -107 728 -56 q 193 -79 410 -132 q 62 103 85 -54 q 83 1086 27 392 l 319 1069 q 285 243 265 441 q 342 134 296 153 q 428 128 387 116 q 504 219 490 142 q 469 1002 540 441 l 701 1033 m 210 1252 l 515 1436 l 589 1211 l 262 1089 l 210 1252 z "},"Û":{"ha":718,"x_min":27,"x_max":754,"o":"m 701 1033 q 736 116 754 513 q 529 -107 728 -56 q 193 -79 410 -132 q 62 103 85 -54 q 83 1086 27 392 l 319 1069 q 285 243 265 441 q 342 134 296 153 q 428 128 387 116 q 504 219 490 142 q 469 1002 540 441 l 701 1033 m 415 1225 l 230 1078 l 165 1276 l 415 1411 l 665 1276 l 600 1078 l 415 1225 z "},"Ü":{"ha":718,"x_min":27,"x_max":754,"o":"m 701 1033 q 736 116 754 513 q 529 -107 728 -56 q 193 -79 410 -132 q 62 103 85 -54 q 83 1086 27 392 l 319 1069 q 285 243 265 441 q 342 134 296 153 q 428 128 387 116 q 504 219 490 142 q 469 1002 540 441 l 701 1033 m 261 1110 q 195 1124 212 1110 q 168 1194 184 1134 q 149 1316 149 1273 q 170 1373 148 1364 q 298 1396 212 1392 q 389 1360 374 1396 q 396 1298 396 1337 q 352 1135 396 1201 q 317 1116 341 1122 q 261 1110 302 1112 m 527 1110 q 461 1124 477 1110 q 434 1194 450 1134 q 414 1316 414 1273 q 436 1373 414 1364 q 564 1396 477 1392 q 654 1360 640 1396 q 662 1298 662 1337 q 618 1135 662 1201 q 583 1116 607 1122 q 527 1110 568 1112 z "},"Ý":{"ha":873,"x_min":27,"x_max":853,"o":"m 294 1113 l 430 739 l 580 1145 l 853 1113 l 551 459 l 551 -54 l 294 -115 l 316 458 l 27 1078 l 294 1113 m 196 1250 l 501 1434 l 575 1209 l 248 1087 l 196 1250 z "},"Œ":{"ha":1202,"x_min":9,"x_max":1174,"o":"m 450 155 q 492 202 478 170 q 545 609 545 369 q 536 762 545 705 q 427 854 520 841 q 247 806 305 865 q 260 387 208 769 q 304 176 290 200 q 382 142 323 141 q 450 155 431 148 m 585 -48 q 521 -83 557 -68 q 350 -104 474 -95 q 153 -46 201 -107 q 71 252 119 -5 q 12 772 12 587 q 77 1014 9 972 q 461 1112 201 1095 q 647 1072 578 1112 l 1174 1050 l 1159 838 l 777 819 l 777 688 l 1056 670 l 1056 454 l 777 446 l 777 209 l 1157 209 l 1151 -7 l 585 -48 z "},"¬":{"ha":755,"x_min":27,"x_max":722,"o":"m 486 403 l 27 403 l 27 672 l 722 672 l 722 118 l 486 118 l 486 403 z "},"±":{"ha":626,"x_min":27,"x_max":574,"o":"m 518 383 l 508 114 l 90 121 l 74 368 l 518 383 m 409 881 l 574 885 l 562 615 l 415 618 l 419 438 l 182 452 l 184 621 l 47 623 l 27 869 l 186 873 l 189 1039 l 405 1062 l 409 881 z "},"™":{"ha":568,"x_min":27,"x_max":534,"o":"m 100 839 l 100 1117 l 27 1117 l 27 1198 l 241 1198 l 241 1117 l 170 1117 l 170 839 l 100 839 m 465 839 l 465 1015 l 395 840 l 326 1015 l 326 839 l 256 839 l 256 1196 l 324 1196 l 395 1016 l 466 1196 l 534 1196 l 534 839 l 465 839 z "},"œ":{"ha":1202,"x_min":9,"x_max":1174,"o":"m 450 155 q 492 202 478 170 q 545 609 545 369 q 536 762 545 705 q 427 854 520 841 q 247 806 305 865 q 260 387 208 769 q 304 176 290 200 q 382 142 323 141 q 450 155 431 148 m 585 -48 q 521 -83 557 -68 q 350 -104 474 -95 q 153 -46 201 -107 q 71 252 119 -5 q 12 772 12 587 q 77 1014 9 972 q 461 1112 201 1095 q 647 1072 578 1112 l 1174 1050 l 1159 838 l 777 819 l 777 688 l 1056 670 l 1056 454 l 777 446 l 777 209 l 1157 209 l 1151 -7 l 585 -48 z "},"£":{"ha":1373,"x_min":292,"x_max":1345,"o":"m 900 456 q 902 437 900 456 q 878 389 903 418 q 817 358 854 361 q 751 380 779 355 q 720 442 722 404 q 741 508 717 479 q 803 539 766 536 q 869 517 840 542 q 900 456 897 493 m 1046 661 q 1047 650 1046 661 q 1033 622 1048 639 q 997 604 1019 605 q 958 616 975 602 q 940 653 941 631 q 952 692 938 675 q 989 710 966 709 q 1027 698 1011 712 q 1046 661 1044 683 m 503 390 q 464 262 477 328 l 682 74 q 799 130 744 96 q 717 -13 741 62 l 796 -81 q 1084 334 983 12 q 953 261 1012 299 q 1234 937 1152 487 q 604 553 796 787 q 659 699 634 619 q 292 352 356 551 l 372 283 q 503 390 444 319 m 774 1185 l 777 1185 l 817 1059 q 948 1059 907 1059 l 950 1059 l 950 1059 l 843 980 l 843 979 l 884 854 l 882 854 q 777 932 777 931 q 669 854 769 927 l 667 854 l 709 980 q 601 1057 610 1052 l 601 1059 l 603 1059 q 734 1059 644 1059 q 774 1185 774 1184 m 465 898 l 465 898 l 481 844 q 537 845 519 845 l 538 845 l 538 844 l 493 812 l 493 812 l 510 759 l 509 759 q 465 791 465 791 q 420 759 462 789 l 419 759 l 437 812 q 391 844 395 842 l 391 845 l 392 845 q 448 844 410 845 q 465 898 465 897 m 1249 511 l 1250 511 l 1272 441 q 1345 442 1322 442 l 1345 442 l 1345 441 l 1286 398 l 1286 398 l 1309 329 l 1308 329 q 1250 372 1250 372 q 1191 329 1246 369 l 1190 329 l 1213 398 q 1154 441 1158 437 l 1154 442 l 1154 442 q 1227 441 1177 442 q 1249 511 1249 511 m 543 144 q 321 -112 370 102 q 543 144 530 -39 z "}}}
